<svg width="24" height="25" viewBox="0 0 24 25" fill="none" xmlns="http://www.w3.org/2000/svg">
<path d="M16.2722 6.25824C16.6191 6.8764 17.263 7.29167 18 7.29167C19.1046 7.29167 20 6.35893 20 5.20833C20 4.05774 19.1046 3.125 18 3.125C16.8954 3.125 16 4.05774 16 5.20833C16 5.5912 16.0991 5.94995 16.2722 6.25824ZM16.2722 6.25824L7.72784 11.4501M7.72784 11.4501C7.38092 10.8319 6.73701 10.4167 6 10.4167C4.89543 10.4167 4 11.3494 4 12.5C4 13.6506 4.89543 14.5833 6 14.5833C6.73701 14.5833 7.38092 14.1681 7.72784 13.5499M7.72784 11.4501C7.90085 11.7584 8 12.1171 8 12.5C8 12.8829 7.90085 13.2416 7.72784 13.5499M7.72784 13.5499L16.2722 18.7418M16.2722 18.7418C16.6191 18.1236 17.263 17.7083 18 17.7083C19.1046 17.7083 20 18.6411 20 19.7917C20 20.9423 19.1046 21.875 18 21.875C16.8954 21.875 16 20.9423 16 19.7917C16 19.4088 16.0991 19.05 16.2722 18.7418Z" stroke="#292929" stroke-width="2" stroke-linecap="round" stroke-linejoin="round"/>
</svg>
